<?xml version="1.0" encoding="UTF-8" standalone="no"?>
<!DOCTYPE svg PUBLIC "-//W3C//DTD SVG 1.1//EN" "http://www.w3.org/Graphics/SVG/1.1/DTD/svg11.dtd">
<svg width="100%" height="100%" viewBox="0 0 500 500" version="1.1" xmlns="http://www.w3.org/2000/svg" xmlns:xlink="http://www.w3.org/1999/xlink" xml:space="preserve" xmlns:serif="http://www.serif.com/" style="fill-rule:evenodd;clip-rule:evenodd;stroke-linejoin:round;stroke-miterlimit:2;">
    <g id="PayConvertLogoBarre">
        <g transform="matrix(1.64226,0,0,1.64226,-34.6437,-133.27)">
            <path d="M156.755,381L181.547,381L184.16,248.055C212.013,251.229 298.627,236.272 298.008,167.537C297.047,60.742 176.343,87.151 163.755,92.63C151.845,97.813 129.853,111.223 129.853,118C129.853,124.777 156.755,127.289 156.755,127.289L156.755,381ZM184.16,119L184.16,217C179.852,214.465 272.981,228.797 268,160C263.634,99.693 179.044,116.606 184.16,119Z" style="fill:rgb(115,87,161);"/>
        </g>
        <g transform="matrix(1.64226,0,0,1.64226,-34.6437,-120.61)">
            <path d="M156.755,236.382L156.755,206.05C156.755,206.05 52.944,203.497 48.743,288.336C44.996,364.006 142.489,356.421 156.755,355.438C173.244,354.301 227.338,354.438 227.338,354.438C227.338,354.438 204.831,344.943 200.338,343C192.074,339.427 173.28,332.677 156.755,333C145.365,333.223 79.159,341.298 78,288.336C76.602,224.411 156.755,236.382 156.755,236.382Z" style="fill:rgb(174,155,206);"/>
        </g>
    </g>
</svg>
