<?xml version="1.0" encoding="UTF-8" standalone="no"?>
<!DOCTYPE svg PUBLIC "-//W3C//DTD SVG 1.1//EN" "http://www.w3.org/Graphics/SVG/1.1/DTD/svg11.dtd">
<svg width="100%" height="100%" viewBox="0 0 300 300" version="1.1" xmlns="http://www.w3.org/2000/svg" xmlns:xlink="http://www.w3.org/1999/xlink" xml:space="preserve" xmlns:serif="http://www.serif.com/" style="fill-rule:evenodd;clip-rule:evenodd;stroke-linejoin:round;stroke-miterlimit:2;">
    <g id="Modelisation" transform="matrix(0.361667,0,0,0.375,-25.4999,2.84217e-14)">
        <g id="mode.jpg">
        </g>
        <rect x="0" y="0" width="985.711" height="800" style="fill:rgb(255,218,151);"/>
        <g transform="matrix(1,0,0,1,125,1.13687e-13)">
            <path d="M393,-0C393,-0 264,139.833 262,224C260,308.167 378.167,409 381,505C383.833,601 279,800 279,800L594,800C594,800 693.333,612 687,516C680.667,420 558,310 556,224C554.034,139.474 675,0 675,0L393,0" style="fill:rgb(255,248,220);"/>
        </g>
        <g transform="matrix(1,0,0,1,-55,1.13687e-13)">
            <path d="M393,-0C393,-0 264,139.833 262,224C260,308.167 378.167,409 381,505C383.833,601 279,800 279,800L594,800C594,800 693.333,612 687,516C680.667,420 558,310 556,224C554.034,139.474 675,0 675,0L393,0" style="fill:white;"/>
        </g>
        <g transform="matrix(0.506883,0,0,0.506883,74.966,444.129)">
            <text x="0px" y="0px" style="font-family:'BaskOldFace', 'Baskerville Old Face', serif;font-size:205.176px;">MODÉLISATION</text>
        </g>
    </g>
</svg>
