<?xml version="1.0" encoding="utf-8"?>
<!-- Generator: Adobe Illustrator 24.0.1, SVG Export Plug-In . SVG Version: 6.00 Build 0)  -->
<svg version="1.1" xmlns="http://www.w3.org/2000/svg" xmlns:xlink="http://www.w3.org/1999/xlink" x="0px" y="0px"
	 viewBox="0 0 785.39 785.39" style="enable-background:new 0 0 785.39 785.39;" xml:space="preserve">
<style type="text/css">
	.st0{fill:#FFDBA2;}
	.st1{fill:none;stroke:#000000;stroke-width:19;stroke-linecap:round;stroke-miterlimit:10;}
	.st2{fill:#FF3A00;}
	.st3{fill:#FFAC00;}
	.st4{fill:#FFCD00;}
	.st5{fill:#9CCD00;}
	.st6{fill:#27AC00;}
	.st7{fill:#008B1F;}
	.st8{fill:#8B4A00;}
</style>
<g id="Calque_2">
	<path class="st0" d="M331.19,720.69h131c-9.36-15.25-25.77-46.28-32-90.73c-5.02-35.87-1.33-65.63,2-83.27c-21.67,0-43.33,0-65,0
		c1.82,21.01,2.65,54.9-6,94.46C353.3,677.24,340.58,704.03,331.19,720.69z"/>
</g>
<g id="Calque_5">
	<path class="st1" d="M707.21,515.57c-18.59,44.21-46.42,83.57-81.07,115.68"/>
	<path class="st1" d="M707.21,515.57"/>
	<path class="st1" d="M730.95,425.17c-0.31,2.71-0.66,5.41-1.04,8.1"/>
	<path class="st1" d="M730.94,347.19c1.49,12.79,2.25,25.81,2.25,39c0,13.18-0.76,26.19-2.25,38.97"/>
	<path class="st1" d="M730.94,347.19"/>
	<path class="st1" d="M717.96,286.16c2.45,7.81,4.62,15.75,6.5,23.8"/>
	<path class="st1" d="M714.81,276.63c1.1,3.16,2.14,6.33,3.15,9.53"/>
	<path class="st1" d="M714.81,276.63"/>
	<path class="st1" d="M399.19,52.19c136.8,0,254.39,82.24,306.02,199.98"/>
	<path class="st1" d="M72.99,314.13c11.5-52.3,35.26-100,68.1-139.94"/>
	<path class="st1" d="M68.49,433.26c-2.17-15.38-3.29-31.09-3.29-47.07c0-24.74,2.69-48.85,7.79-72.06"/>
	<path class="st1" d="M68.49,433.26"/>
	<path class="st1" d="M83.15,494.52c-2.09-6.09-4-12.26-5.74-18.5"/>
	<path class="st1" d="M109.41,552.39c-10.5-18.27-19.33-37.64-26.26-57.87"/>
	<path class="st1" d="M109.41,552.39"/>
	<path class="st1" d="M582.73,665.3c-52.67,34.7-115.74,54.9-183.53,54.9c-83.56,0-159.96-30.69-218.53-81.41"/>
	<path class="st1" d="M620.95,292.22"/>
	<path class="st1" d="M170.49,315.93c24.5-103.62,117.59-180.73,228.7-180.73c60.65,0,115.93,22.97,157.62,60.69"/>
	<path class="st1" d="M331.19,595.21c-75.85-22.89-135.52-83.09-157.68-159.26"/>
	<path class="st1" d="M620.95,292.22c8.58,24.4,13.25,50.64,13.25,77.97c0,113.56-80.55,208.31-187.64,230.23"/>
	<path class="st1" d="M315.19,753.35c-44.95-9.92-86.89-27.88-124.23-52.28"/>
	<path class="st1" d="M730.43,560.14c-14.96,28.57-33.49,54.98-54.99,78.64"/>
	<path class="st1" d="M717.96,189.28c5.01,8.18,9.72,16.56,14.11,25.14"/>
	<path class="st1" d="M85.33,162.72c18.63-26.65,40.8-51.02,66.17-72.32"/>
	<path class="st1" d="M85.33,162.72"/>
	<path class="st1" d="M57.83,208.14c3.23-5.95,6.61-11.82,10.16-17.59"/>
</g>
<g id="Calque_1">
	<g>
		<ellipse class="st0" cx="397.19" cy="386.19" rx="160.5" ry="196.5"/>
	</g>
	<path class="st0" d="M282.69,713.69"/>
	<path class="st0" d="M307.69,672.69"/>
	<path d="M270.69,642.69v-311h250v311l33-120c0,0,73-334-156-333s-158,338-158,338L270.69,642.69z"/>
	<ellipse cx="399.19" cy="163.19" rx="63.5" ry="49.5"/>
</g>
<g id="Calque_4">
	
		<ellipse transform="matrix(0.814 -0.5809 0.5809 0.814 -64.5986 146.6544)" class="st2" cx="196.69" cy="174.19" rx="45" ry="41.5"/>
	
		<ellipse transform="matrix(0.3997 -0.9167 0.9167 0.3997 91.8055 777.0245)" class="st3" cx="639.12" cy="318.42" rx="41.5" ry="45"/>
	<path class="st4" d="M154.26,376.13c0,0,6.31-8.02,11.25-5.93c4.94,2.09,6.05,13.25,6.05,13.25s12.7,18.2,8.1,29.08
		s-28.04,18.07-28.04,18.07s-8.19,7.22-13.72,4.89c-9.89-4.18-4.35-10.39-4.35-10.39s-12.87-24.68-9.04-33.75
		S154.26,376.13,154.26,376.13z"/>
	<path class="st5" d="M554.02,84.23c-1.82,1.72-2.99,4.02-3.56,6.46c-3.2,13.7-8.45,52.1,36.64,41.94
		c50.36-11.35,18.82-47.37,13.61-52.9c-0.39-0.42-0.81-0.81-1.26-1.17c-3.76-3.03-24.82-20.72-25.45-36.92
		c-0.23-5.93-3.32-8.3-7.32-8.83c-9.76-1.28-17.1,8.9-13.19,17.93C558.14,61.5,562.26,76.43,554.02,84.23z"/>
	<path class="st5" d="M177.14,137.54c0,0-2.45-27.84,29.55-35.84s0,27,0,27L177.14,137.54z"/>
	<path class="st6" d="M659.52,282.17c0,0,10.74-2.5,18.96,5.51c8.22,8.01,8.22,8.01,8.22,8.01s-20.76,0.47-29.34-4.52
		s-8.58-4.99-8.58-4.99s-14.54,5.01-24.65,2.5c-10.11-2.5-16.43-7.01-16.43-7.01s8.85-5.51,18.96-5.01s22.75,4.5,22.75,4.5
		L659.52,282.17z"/>
	<path class="st7" d="M557.89,41.21c0,0-1.22-13.92,14.72-17.92s0,13.5,0,13.5L557.89,41.21z"/>
</g>
<g id="Calque_3">
	<path class="st8" d="M398.85,494.14c0,0-13.74-16.93-21.47-13.55c-7.73,3.39-14.6,24.55-22.33,26.25s19.76,33.02,43.81,33.02"/>
	<path class="st8" d="M398.16,494.21c0,0,13.74-16.86,21.47-13.49c7.73,3.37,14.6,24.45,22.33,26.13
		c7.73,1.69-19.76,32.88-43.81,32.88"/>
	<path d="M360.19,383.19c-12.78-1.53-29.36-4.9-47.5-12.5c-10.79-4.52-19.96-9.63-27.5-14.5c0.62,2.87,1.37,8.27-0.5,14.5
		c-3.32,11.07-12.37,16.33-14.5,17.5c10.34,2.59,24.56,5.01,41.5,4.5C332.38,392.07,349.07,387.33,360.19,383.19z"/>
	<path d="M431.12,382.92c12.78-1.53,29.36-4.9,47.5-12.5c10.79-4.52,19.96-9.63,27.5-14.5c-0.62,2.87-1.37,8.27,0.5,14.5
		c3.32,11.07,12.37,16.33,14.5,17.5c-10.34,2.59-24.56,5.01-41.5,4.5C458.94,391.8,442.24,387.06,431.12,382.92z"/>
</g>
</svg>
