<?xml version="1.0" encoding="UTF-8" standalone="no"?>
<!DOCTYPE svg PUBLIC "-//W3C//DTD SVG 1.1//EN" "http://www.w3.org/Graphics/SVG/1.1/DTD/svg11.dtd">
<svg width="100%" height="100%" viewBox="0 0 800 800" version="1.1" xmlns="http://www.w3.org/2000/svg" xmlns:xlink="http://www.w3.org/1999/xlink" xml:space="preserve" xmlns:serif="http://www.serif.com/" style="fill-rule:evenodd;clip-rule:evenodd;stroke-linejoin:round;stroke-miterlimit:2;">
    <g transform="matrix(1.43793,0,0,1.43793,-57.5018,-86.7721)">
        <path d="M300,224C300,224 149.333,119.833 138,144C126.667,168.167 226,333 226,333C226,333 205,492.833 168,536C150.141,556.835 302,477 302,477C302,477 237.174,484.461 231,461C224.333,435.667 294.686,338.523 294.686,338.523C294.686,338.523 204,237 209,214C214,191 300,224 300,224Z" style="fill:rgb(255,207,180);"/>
    </g>
    <g transform="matrix(1.43793,0,0,1.43793,-57.5018,-86.7721)">
        <path d="M321,140.363L329,539.469C329,539.469 356.372,489 375,489C400,489 485.333,543.469 490,511.469C494.667,479.469 424,326 424,326C424,326 510.5,161.363 498,140.363C485.5,119.363 341,224 341,224L321,140.363ZM362,360L365,436C365,436 444.5,486.667 444,474C443.5,461.333 362,360 362,360ZM360,255C360,255 457.833,175.08 458,188C458.167,200.92 361,323.523 361,323.523L360,255Z" style="fill:rgb(254,221,245);"/>
    </g>
</svg>
