<?xml version="1.0" encoding="UTF-8" standalone="no"?><!DOCTYPE svg PUBLIC "-//W3C//DTD SVG 1.1//EN" "http://www.w3.org/Graphics/SVG/1.1/DTD/svg11.dtd"><svg width="100%" height="100%" viewBox="0 0 500 500" version="1.1" xmlns="http://www.w3.org/2000/svg" xmlns:xlink="http://www.w3.org/1999/xlink" xml:space="preserve" xmlns:serif="http://www.serif.com/" style="fill-rule:evenodd;clip-rule:evenodd;stroke-linejoin:round;stroke-miterlimit:2;"><g id="PayConvertLogoSite"><path d="M124.194,415.722l27.832,0l2.933,-149.247c31.269,3.563 128.504,-13.228 127.81,-90.392c-1.079,-119.891 -136.585,-90.243 -150.716,-84.093c-13.371,5.819 -38.059,20.874 -38.059,28.482c-0,7.607 30.2,10.428 30.2,10.428l0,284.822Zm30.765,-294.128l0,110.018c-4.836,-2.846 99.713,13.243 94.122,-63.99c-4.902,-67.702 -99.865,-48.715 -94.122,-46.028Z" style="fill:#7357a1;"/><path d="M124.194,262.025l0,-34.052c0,0 -116.541,-2.866 -121.257,92.377c-4.206,84.948 105.242,76.433 121.257,75.33c18.511,-1.276 79.238,-1.123 79.238,-1.123c0,-0 -25.266,-10.659 -30.31,-12.84c-9.278,-4.011 -30.377,-11.589 -48.928,-11.226c-12.786,0.25 -87.112,9.315 -88.412,-50.141c-1.57,-71.764 88.412,-58.325 88.412,-58.325Z" style="fill:#ae9bce;"/><text x="176.034px" y="387.866px" style="font-family:'Nunito-Regular', 'Nunito';font-size:107.772px;">on<tspan x="300.909px 355.637px 416.574px " y="387.866px 387.866px 387.866px ">ver</tspan>t</text></g></svg>